<svg xmlns="http://www.w3.org/2000/svg" viewBox="0 0 1024 1024" role="img" aria-label="Leopard">
  <title>Leopard</title>
  <circle cx="512" cy="512" r="500" fill="#F7F6F1"/>
  <path d="M228 608c34-148 138-244 284-244 138 0 246 94 284 244-58 82-156 132-284 132S286 690 228 608Z" fill="#D89C45"/>
  <path d="M354 338c-46-68-92-78-128-48 0 68 32 116 92 142l72-36c-7-18-19-38-36-58Z" fill="#D89C45"/>
  <path d="M670 338c46-68 92-78 128-48 0 68-32 116-92 142l-72-36c7-18 19-38 36-58Z" fill="#D89C45"/>
  <path d="M320 610c34 54 102 88 192 88s158-34 192-88c-31-88-98-142-192-142s-161 54-192 142Z" fill="#F7C873"/>
  <g fill="#121612">
    <circle cx="378" cy="500" r="32"/>
    <circle cx="646" cy="500" r="32"/>
    <path d="M470 598c0-24 18-42 42-42s42 18 42 42c0 28-26 54-42 54s-42-26-42-54Z"/>
    <path d="M340 390c18-22 44-34 78-34l8 44c-36-2-58 8-72 30l-14-40Z"/>
    <path d="M684 390c-18-22-44-34-78-34l-8 44c36-2 58 8 72 30l14-40Z"/>
    <circle cx="292" cy="578" r="22"/>
    <circle cx="358" cy="650" r="18"/>
    <circle cx="438" cy="424" r="18"/>
    <circle cx="512" cy="408" r="16"/>
    <circle cx="586" cy="424" r="18"/>
    <circle cx="666" cy="650" r="18"/>
    <circle cx="732" cy="578" r="22"/>
    <circle cx="440" cy="704" r="16"/>
    <circle cx="584" cy="704" r="16"/>
  </g>
  <path d="M382 596c36 28 74 42 130 42s94-14 130-42" fill="none" stroke="#121612" stroke-width="18" stroke-linecap="round"/>
</svg>
