<svg xmlns="http://www.w3.org/2000/svg" viewBox="0 0 24 24" aria-hidden="true">
  <path fill="currentColor" d="M12 .8a11.2 11.2 0 0 0-3.5 21.8c.6.1.8-.3.8-.6v-2.1c-3.3.7-4-1.4-4-1.4-.5-1.3-1.3-1.7-1.3-1.7-1.1-.7.1-.7.1-.7 1.2.1 1.8 1.2 1.8 1.2 1.1 1.8 2.8 1.3 3.5 1 .1-.8.4-1.3.8-1.6-2.7-.3-5.5-1.3-5.5-5.9 0-1.3.5-2.4 1.2-3.2-.1-.3-.5-1.6.1-3.2 0 0 1-.3 3.3 1.2A11.3 11.3 0 0 1 12 5c1 0 2 .1 2.9.4 2.3-1.5 3.3-1.2 3.3-1.2.6 1.6.2 2.9.1 3.2.8.8 1.2 1.9 1.2 3.2 0 4.6-2.8 5.6-5.5 5.9.4.4.8 1.1.8 2.2V22c0 .3.2.7.8.6A11.2 11.2 0 0 0 12 .8Z"/>
</svg>
